<svg version="1.1" id="Layer_1" xmlns:x="ns_extend;" xmlns:i="ns_ai;" xmlns:graph="ns_graphs;" xmlns="http://www.w3.org/2000/svg" xmlns:xlink="http://www.w3.org/1999/xlink" x="0px" y="0px" viewBox="0 0 41.2 57.5" style="enable-background:new 0 0 41.2 57.5;" xml:space="preserve">
 <style type="text/css">
  .st0{fill-rule:evenodd;clip-rule:evenodd;fill:#00C4F5;}
	.st1{fill-rule:evenodd;clip-rule:evenodd;fill:#FF7777;}
	.st2{fill-rule:evenodd;clip-rule:evenodd;fill:#005267;}
 </style>
 <metadata>
  <sfw xmlns="ns_sfw;">
   <slices>
   </slices>
   <sliceSourceBounds bottomLeftOrigin="true" height="57.5" width="41.2" x="-143.7" y="-232.7">
   </sliceSourceBounds>
  </sfw>
 </metadata>
 <g id="gb-main-desktop-logo">
  <g id="logo-gob">
   <g id="iso-gob">
    <path class="st0" d="M24.3,16.8c6-6.7,17-2.3,17,6.7v24.1c0,5.5-4.4,9.9-9.8,9.9H9.8c-8.5,0-12.9-10.3-7.2-16.7L24.3,16.8z
				 M32.6,23.5c0-1.1-1.3-1.6-2-0.8L9,46.8c-0.7,0.7-0.1,1.9,0.8,1.9h21.7c0.6,0,1.1-0.5,1.1-1.2V23.5z">
    </path>
    <path class="st1" d="M20.6,8.8c-6.6,0-12,5.5-12,12.3c0,6.8,5.4,12.3,12,12.3c6.6,0,12-5.5,12-12.3C32.6,14.3,27.2,8.8,20.6,8.8z
				 M0,21.1C0,9.5,9.2,0,20.6,0C32,0,41.2,9.5,41.2,21.1S32,42.2,20.6,42.2C9.2,42.2,0,32.7,0,21.1z">
    </path>
    <path class="st2" d="M12.4,30l-5.8,6.5c2.1,2.1,4.7,3.7,7.6,4.6l6.9-7.7c-0.1,0-0.3,0-0.4,0C17.4,33.4,14.5,32.1,12.4,30z
				 M32.5,23c0.1-0.6,0.1-1.2,0.1-1.9c0-2.8-0.9-5.4-2.5-7.5c5.1-0.7,10.5,2.9,11,8.9c-0.4,6.5-3.7,12.2-8.6,15.8V23.5
				C32.6,23.3,32.5,23.1,32.5,23z">
    </path>
   </g>
  </g>
 </g>
</svg>